<?xml version="1.0" encoding="UTF-8" standalone="no"?>
<!DOCTYPE svg PUBLIC "-//W3C//DTD SVG 1.1//EN" "http://www.w3.org/Graphics/SVG/1.1/DTD/svg11.dtd">
<svg version="1.1" xmlns="http://www.w3.org/2000/svg" xmlns:xlink="http://www.w3.org/1999/xlink" preserveAspectRatio="xMidYMid meet" viewBox="0 0 640 640" width="640" height="640"><defs><path d="M226.75 574.36C204.16 574.36 185.83 556.02 185.83 533.43C185.83 510.84 204.16 492.51 226.75 492.51C249.35 492.51 267.68 510.84 267.68 533.43C267.68 556.02 249.35 574.36 226.75 574.36Z" id="bNOGzw4BV"></path><path d="M469.6 574.36C447.01 574.36 428.67 556.02 428.67 533.43C428.67 510.84 447.01 492.51 469.6 492.51C492.18 492.51 510.53 510.84 510.53 533.43C510.53 556.02 492.18 574.36 469.6 574.36Z" id="c17g7irbFk"></path><path d="M504.35 454.4C499.51 461 491.82 464.9 483.64 464.9C420.57 464.9 244.98 464.9 182.06 464.9C174.03 464.9 167.12 459.25 165.52 451.39C164.49 446.33 161.91 433.63 157.77 413.33C161.43 413.43 179.71 413.92 212.62 414.8C375.37 414.8 465.79 414.8 483.87 414.8C486.59 414.8 488.3 414.8 488.98 414.8C492.47 414.8 495.86 416.06 498.51 418.35C506.21 425 510.21 431.7 510.51 438.48C510.72 443.18 508.67 448.49 504.35 454.4Z" id="apKtPCMsp"></path><path d="M72.04 85.87C89.03 85.87 117.13 85.87 134.84 85.87C147.62 85.87 158.55 95.12 160.66 107.74C166.85 144.75 182.31 237.25 207.05 385.26C207.35 387.43 208.87 398.29 211.6 417.85L163.09 444.38C131.26 262.47 113.57 161.41 110.04 141.2C90.06 141.2 77.57 141.2 72.57 141.2C58.09 141.2 46.34 129.46 46.34 114.97C46.34 109.15 46.34 117.5 46.34 111.58C46.34 97.38 57.84 85.87 72.04 85.87Z" id="g2TZ4i4CIp"></path><path d="M559.52 196.91C561.51 182.77 562.75 173.95 563.25 170.41C565.29 155.96 554.11 143.02 539.51 142.94C489.32 142.65 363.85 141.95 163.09 140.83C163.8 144.41 167.34 162.35 173.7 194.63C405.19 196 533.8 196.76 559.52 196.91Z" id="a1DdJyIdAc"></path><path d="M537.22 358.21C536.89 361.4 536.68 363.4 536.6 364.2C535.39 375.94 525.5 384.88 513.69 384.88C509.08 384.88 497.57 384.88 479.14 384.88C480.86 372.25 489.45 309.09 504.91 195.4L559.49 196.91C546.13 293.69 538.7 347.46 537.22 358.21Z" id="a3awy9DImp"></path><path d="M479.14 384.88L487.48 331.06L194.92 331.06L205.53 384.88L479.14 384.88Z" id="a1rHW6S5IE"></path><path d="M185.85 275.73L495.05 275.73L498.85 249.97L180.52 249.97" id="df4nKi9EN"></path><path d="M294.97 332.58L267.68 332.58L267.68 186.3L294.97 186.3L294.97 332.58Z" id="d1Y3MHlsCb"></path><path d="M401.83 331.06L374.55 331.06L374.55 193.88L401.83 193.88L401.83 331.06Z" id="afqDNGYRW"></path></defs><g><g><g><use xlink:href="#bNOGzw4BV" opacity="1" fill="#23b14d" fill-opacity="1"></use><g><use xlink:href="#bNOGzw4BV" opacity="1" fill-opacity="0" stroke="#000000" stroke-width="1" stroke-opacity="0"></use></g></g><g><use xlink:href="#c17g7irbFk" opacity="1" fill="#23b14d" fill-opacity="1"></use><g><use xlink:href="#c17g7irbFk" opacity="1" fill-opacity="0" stroke="#000000" stroke-width="1" stroke-opacity="0"></use></g></g><g><use xlink:href="#apKtPCMsp" opacity="1" fill="#23b14d" fill-opacity="1"></use><g><use xlink:href="#apKtPCMsp" opacity="1" fill-opacity="0" stroke="#000000" stroke-width="1" stroke-opacity="0"></use></g></g><g><use xlink:href="#g2TZ4i4CIp" opacity="1" fill="#23b14d" fill-opacity="1"></use><g><use xlink:href="#g2TZ4i4CIp" opacity="1" fill-opacity="0" stroke="#000000" stroke-width="1" stroke-opacity="0"></use></g></g><g><use xlink:href="#a1DdJyIdAc" opacity="1" fill="#23b14d" fill-opacity="1"></use><g><use xlink:href="#a1DdJyIdAc" opacity="1" fill-opacity="0" stroke="#000000" stroke-width="1" stroke-opacity="0"></use></g></g><g><use xlink:href="#a3awy9DImp" opacity="1" fill="#23b14d" fill-opacity="1"></use><g><use xlink:href="#a3awy9DImp" opacity="1" fill-opacity="0" stroke="#000000" stroke-width="1" stroke-opacity="0"></use></g></g><g><use xlink:href="#a1rHW6S5IE" opacity="1" fill="#23b14d" fill-opacity="1"></use><g><use xlink:href="#a1rHW6S5IE" opacity="1" fill-opacity="0" stroke="#000000" stroke-width="1" stroke-opacity="0"></use></g></g><g><use xlink:href="#df4nKi9EN" opacity="1" fill="#23b14d" fill-opacity="1"></use><g><use xlink:href="#df4nKi9EN" opacity="1" fill-opacity="0" stroke="#000000" stroke-width="1" stroke-opacity="0"></use></g></g><g><use xlink:href="#d1Y3MHlsCb" opacity="1" fill="#26b04d" fill-opacity="1"></use><g><use xlink:href="#d1Y3MHlsCb" opacity="1" fill-opacity="0" stroke="#000000" stroke-width="1" stroke-opacity="0"></use></g></g><g><use xlink:href="#afqDNGYRW" opacity="1" fill="#23b14d" fill-opacity="1"></use><g><use xlink:href="#afqDNGYRW" opacity="1" fill-opacity="0" stroke="#000000" stroke-width="1" stroke-opacity="0"></use></g></g></g></g></svg>