<?xml version="1.0" encoding="UTF-8" standalone="no"?>
<!DOCTYPE svg PUBLIC "-//W3C//DTD SVG 1.1//EN" "http://www.w3.org/Graphics/SVG/1.1/DTD/svg11.dtd">
<svg version="1.1" xmlns="http://www.w3.org/2000/svg" xmlns:xlink="http://www.w3.org/1999/xlink" preserveAspectRatio="xMidYMid meet" viewBox="0 0 640 640" width="640" height="640"><defs><path d="M234.8 574.36C212.21 574.36 193.88 556.02 193.88 533.43C193.88 510.84 212.21 492.51 234.8 492.51C257.4 492.51 275.73 510.84 275.73 533.43C275.73 556.02 257.4 574.36 234.8 574.36Z" id="aA9apLlwD"></path><path d="M477.65 574.36C455.06 574.36 436.72 556.02 436.72 533.43C436.72 510.84 455.06 492.51 477.65 492.51C500.24 492.51 518.58 510.84 518.58 533.43C518.58 556.02 500.24 574.36 477.65 574.36Z" id="d1i0EWa4ZF"></path><path d="M512.4 455.91C507.56 462.51 499.88 466.41 491.69 466.41C428.62 466.41 253.03 466.41 190.11 466.41C182.09 466.41 175.17 460.76 173.58 452.9C172.54 447.83 169.96 435.14 165.83 414.84C169.48 414.93 187.76 415.42 220.67 416.31C383.42 416.31 473.84 416.31 491.92 416.31C494.65 416.31 496.35 416.31 497.03 416.31C500.53 416.31 503.91 417.57 506.56 419.85C514.26 426.5 518.26 433.21 518.56 439.98C518.78 444.68 516.72 450 512.4 455.91Z" id="cOo0CccUL"></path><path d="M79.32 85.87C96.31 85.87 124.41 85.87 142.11 85.87C154.9 85.87 165.83 95.12 167.94 107.74C174.13 144.75 189.58 237.25 214.32 385.26C214.63 387.43 216.14 398.29 218.87 417.85L170.37 444.38C138.53 262.47 120.85 161.41 117.31 141.2C97.33 141.2 84.84 141.2 79.85 141.2C65.36 141.2 53.61 129.46 53.61 114.97C53.61 109.15 53.61 117.5 53.61 111.58C53.61 97.38 65.12 85.87 79.32 85.87Z" id="bX1K6indo"></path><path d="M567.57 196.91C569.56 182.77 570.8 173.95 571.3 170.41C573.34 155.96 562.16 143.02 547.56 142.94C497.37 142.65 371.9 141.95 171.14 140.83C171.85 144.41 175.39 162.35 181.76 194.63C413.25 196 541.85 196.76 567.57 196.91Z" id="a3UApJcDRx"></path><path d="M545.27 358.21C544.94 361.4 544.73 363.4 544.65 364.2C543.44 375.94 533.55 384.88 521.74 384.88C517.14 384.88 505.62 384.88 487.2 384.88C488.91 372.25 497.5 309.09 512.96 195.4L567.54 196.91C554.18 293.69 546.75 347.46 545.27 358.21Z" id="ayAYQRMUz"></path><path d="M487.2 384.88L495.53 331.06L202.97 331.06L213.59 384.88L487.2 384.88Z" id="eR25Iaehc"></path><path d="M195.42 278.01L504.62 278.01L508.42 252.24L190.09 252.24" id="clRxgK0ie"></path><path d="M303.02 332.58L275.73 332.58L275.73 186.3L303.02 186.3L303.02 332.58Z" id="b7KqD7DfFK"></path><path d="M409.11 331.44L381.83 331.44L381.83 194.26L409.11 194.26L409.11 331.44Z" id="g3ssHIlx"></path></defs><g><g><g><use xlink:href="#aA9apLlwD" opacity="1" fill="#ffffff" fill-opacity="1"></use><g><use xlink:href="#aA9apLlwD" opacity="1" fill-opacity="0" stroke="#000000" stroke-width="1" stroke-opacity="0"></use></g></g><g><use xlink:href="#d1i0EWa4ZF" opacity="1" fill="#ffffff" fill-opacity="1"></use><g><use xlink:href="#d1i0EWa4ZF" opacity="1" fill-opacity="0" stroke="#000000" stroke-width="1" stroke-opacity="0"></use></g></g><g><use xlink:href="#cOo0CccUL" opacity="1" fill="#ffffff" fill-opacity="1"></use><g><use xlink:href="#cOo0CccUL" opacity="1" fill-opacity="0" stroke="#000000" stroke-width="1" stroke-opacity="0"></use></g></g><g><use xlink:href="#bX1K6indo" opacity="1" fill="#ffffff" fill-opacity="1"></use><g><use xlink:href="#bX1K6indo" opacity="1" fill-opacity="0" stroke="#000000" stroke-width="1" stroke-opacity="0"></use></g></g><g><use xlink:href="#a3UApJcDRx" opacity="1" fill="#ffffff" fill-opacity="1"></use><g><use xlink:href="#a3UApJcDRx" opacity="1" fill-opacity="0" stroke="#000000" stroke-width="1" stroke-opacity="0"></use></g></g><g><use xlink:href="#ayAYQRMUz" opacity="1" fill="#ffffff" fill-opacity="1"></use><g><use xlink:href="#ayAYQRMUz" opacity="1" fill-opacity="0" stroke="#000000" stroke-width="1" stroke-opacity="0"></use></g></g><g><use xlink:href="#eR25Iaehc" opacity="1" fill="#ffffff" fill-opacity="1"></use><g><use xlink:href="#eR25Iaehc" opacity="1" fill-opacity="0" stroke="#000000" stroke-width="1" stroke-opacity="0"></use></g></g><g><use xlink:href="#clRxgK0ie" opacity="1" fill="#ffffff" fill-opacity="1"></use><g><use xlink:href="#clRxgK0ie" opacity="1" fill-opacity="0" stroke="#000000" stroke-width="1" stroke-opacity="0"></use></g></g><g><use xlink:href="#b7KqD7DfFK" opacity="1" fill="#ffffff" fill-opacity="1"></use><g><use xlink:href="#b7KqD7DfFK" opacity="1" fill-opacity="0" stroke="#000000" stroke-width="1" stroke-opacity="0"></use></g></g><g><use xlink:href="#g3ssHIlx" opacity="1" fill="#ffffff" fill-opacity="1"></use><g><use xlink:href="#g3ssHIlx" opacity="1" fill-opacity="0" stroke="#000000" stroke-width="1" stroke-opacity="0"></use></g></g></g></g></svg>