<?xml version="1.0" encoding="UTF-8" standalone="no"?>
<!DOCTYPE svg PUBLIC "-//W3C//DTD SVG 1.1//EN" "http://www.w3.org/Graphics/SVG/1.1/DTD/svg11.dtd">
<svg version="1.1" xmlns="http://www.w3.org/2000/svg" xmlns:xlink="http://www.w3.org/1999/xlink" preserveAspectRatio="xMidYMid meet" viewBox="0 0 640 640" width="640" height="640"><defs><path d="M141.26 41.34L141.95 41.4L142.63 41.48L143.31 41.59L143.98 41.72L144.64 41.87L145.29 42.04L145.94 42.24L146.58 42.45L147.2 42.69L147.82 42.94L148.43 43.22L149.03 43.52L149.61 43.83L150.19 44.17L150.75 44.52L151.3 44.89L151.84 45.28L152.37 45.69L152.88 46.11L153.37 46.55L153.86 47.01L154.32 47.48L154.77 47.97L155.21 48.48L155.63 48.99L156.03 49.53L156.41 50.08L156.78 50.64L157.13 51.21L157.46 51.8L157.77 52.4L158.06 53.02L158.33 53.64L158.58 54.28L158.81 54.93L159.02 55.59L159.21 56.26L159.37 56.94L173.65 121.21L662.02 121.21L662.49 121.22L662.96 121.24L663.42 121.26L663.89 121.3L664.35 121.35L664.81 121.41L665.27 121.48L665.72 121.56L666.18 121.65L666.63 121.75L667.07 121.86L667.52 121.99L667.96 122.12L668.39 122.26L668.83 122.41L669.26 122.57L669.68 122.74L670.1 122.92L670.52 123.11L670.93 123.31L671.34 123.52L671.74 123.74L672.14 123.97L672.53 124.2L672.92 124.45L673.3 124.7L673.68 124.97L674.05 125.24L674.41 125.52L674.77 125.81L675.12 126.11L675.46 126.42L675.8 126.73L676.13 127.06L676.46 127.39L676.78 127.73L677.09 128.07L677.39 128.43L677.69 128.79L677.97 129.17L678.25 129.54L678.52 129.93L678.78 130.32L679.03 130.71L679.27 131.11L679.5 131.51L679.72 131.92L679.93 132.33L680.12 132.75L680.31 133.17L680.49 133.59L680.67 134.02L680.83 134.45L680.97 134.88L681.11 135.32L681.24 135.76L681.36 136.2L681.47 136.64L681.57 137.09L681.66 137.54L681.74 137.99L681.81 138.44L681.87 138.9L681.91 139.35L681.95 139.81L681.98 140.27L681.99 140.73L682 141.19L681.99 141.65L681.98 142.11L681.95 142.57L681.91 143.03L681.87 143.49L681.81 143.95L681.74 144.41L681.66 144.86L681.57 145.32L681.47 145.78L681.35 146.23L681.23 146.68L601.31 426.41L601.11 427.05L600.9 427.68L600.67 428.29L600.42 428.9L600.14 429.5L599.86 430.08L599.55 430.65L599.22 431.21L598.88 431.76L598.53 432.29L598.15 432.81L597.76 433.32L597.36 433.82L596.94 434.3L596.5 434.76L596.06 435.22L595.59 435.65L595.12 436.08L594.63 436.48L594.13 436.87L593.61 437.25L593.09 437.61L592.55 437.95L592.01 438.27L591.45 438.58L590.88 438.87L590.3 439.14L589.72 439.39L589.12 439.63L588.52 439.84L587.9 440.04L587.28 440.22L586.66 440.38L586.02 440.51L585.38 440.63L584.74 440.73L584.08 440.8L583.43 440.86L582.76 440.89L582.1 440.9L219.84 440.9L219.83 440.9L219.82 440.9L219.81 440.9L219.79 440.91L219.78 440.91L219.77 440.91L219.73 440.91L218.91 440.93L218.1 440.98L217.3 441.06L216.5 441.18L215.72 441.32L214.95 441.5L214.19 441.7L213.44 441.94L212.7 442.2L211.98 442.49L211.27 442.81L210.58 443.15L209.9 443.52L209.24 443.92L208.6 444.34L207.97 444.78L207.36 445.25L206.77 445.74L206.2 446.25L205.65 446.78L205.12 447.33L204.61 447.9L204.12 448.5L203.65 449.11L203.21 449.74L202.79 450.38L202.4 451.04L202.03 451.72L201.69 452.42L201.37 453.12L201.08 453.85L200.82 454.58L200.59 455.33L200.38 456.09L200.21 456.87L200.07 457.65L199.95 458.45L199.87 459.25L199.82 460.06L199.8 460.88L199.82 461.7L199.87 462.52L199.95 463.32L200.07 464.12L200.21 464.9L200.39 465.68L200.59 466.44L200.83 467.19L201.09 467.93L201.38 468.65L201.69 469.36L202.04 470.06L202.41 470.74L202.8 471.4L203.22 472.05L203.67 472.67L204.13 473.29L204.62 473.88L205.13 474.45L205.66 475L206.22 475.54L206.79 476.05L207.38 476.54L207.99 477L208.62 477.45L209.27 477.86L209.93 478.26L210.61 478.63L211.31 478.97L212.02 479.29L212.74 479.58L213.48 479.84L214.23 480.08L214.99 480.28L215.76 480.46L216.55 480.6L217.34 480.71L218.15 480.8L218.96 480.85L219.79 480.86L582.1 480.86L582.92 480.88L583.74 480.93L584.54 481.01L585.34 481.12L586.12 481.27L586.9 481.44L587.66 481.65L588.41 481.88L589.15 482.14L589.88 482.43L590.59 482.75L591.28 483.09L591.96 483.46L592.62 483.86L593.27 484.28L593.9 484.72L594.51 485.18L595.1 485.67L595.67 486.18L596.23 486.71L596.76 487.27L597.27 487.84L597.76 488.43L598.22 489.04L598.67 489.67L599.08 490.32L599.48 490.98L599.85 491.66L600.19 492.36L600.51 493.07L600.8 493.79L601.06 494.53L601.29 495.28L601.5 496.04L601.67 496.82L601.82 497.6L601.93 498.4L602.01 499.2L602.06 500.02L602.08 500.84L602.06 501.67L602.01 502.48L601.93 503.29L601.82 504.08L601.67 504.87L601.5 505.65L601.29 506.41L601.06 507.16L600.8 507.9L600.51 508.62L600.19 509.33L599.85 510.03L599.48 510.71L599.08 511.37L598.67 512.02L598.22 512.64L597.76 513.26L597.27 513.85L596.76 514.42L596.23 514.97L595.67 515.5L595.1 516.01L594.51 516.5L593.9 516.97L593.27 517.41L592.62 517.83L591.96 518.23L591.28 518.59L590.59 518.94L589.88 519.25L589.15 519.54L588.41 519.81L587.66 520.04L586.9 520.24L586.12 520.42L585.34 520.56L584.54 520.68L583.74 520.76L582.92 520.81L582.1 520.82L219.79 520.82L217.32 520.77L214.88 520.63L212.46 520.38L210.08 520.04L207.72 519.6L205.4 519.08L203.11 518.46L200.86 517.76L198.65 516.98L196.48 516.11L194.35 515.15L192.26 514.12L190.22 513.01L188.23 511.83L186.29 510.57L184.41 509.24L182.57 507.84L180.8 506.38L179.08 504.84L177.42 503.25L175.82 501.59L174.29 499.87L172.82 498.09L171.42 496.26L170.09 494.37L168.84 492.43L167.65 490.44L166.54 488.41L165.51 486.32L164.56 484.19L163.69 482.02L162.9 479.81L162.2 477.56L161.59 475.27L161.06 472.95L160.63 470.59L160.29 468.21L160.04 465.79L159.89 463.35L159.84 460.88L159.87 459.04L159.95 457.22L160.09 455.41L160.28 453.62L160.53 451.84L160.82 450.07L161.17 448.33L161.56 446.6L162.01 444.9L162.5 443.21L163.05 441.55L163.63 439.9L164.27 438.28L164.95 436.68L165.68 435.11L166.45 433.56L167.26 432.03L168.11 430.53L169.01 429.06L169.95 427.62L170.92 426.21L171.94 424.82L172.99 423.47L174.08 422.15L175.21 420.86L176.37 419.6L177.57 418.38L178.81 417.19L180.07 416.03L181.37 414.91L182.7 413.83L184.06 412.79L185.46 411.78L186.88 410.82L188.33 409.89L189.8 409L191.31 408.16L192.84 407.36L194.39 406.6L195.97 405.88L195.58 404.09L194.96 401.31L194.13 397.58L193.1 392.96L191.89 387.51L190.51 381.28L188.96 374.31L187.26 366.67L185.42 358.41L183.46 349.57L181.38 340.22L179.2 330.4L176.93 320.17L174.57 309.58L172.15 298.68L169.67 287.53L167.15 276.18L164.6 264.68L162.02 253.09L159.43 241.45L156.85 229.82L154.28 218.26L151.74 206.81L149.23 195.54L146.77 184.48L144.38 173.7L142.06 163.25L139.82 153.18L137.68 143.54L135.64 134.39L133.73 125.77L131.95 117.75L130.31 110.38L128.82 103.7L127.51 97.77L126.37 92.65L125.42 88.39L124.68 85.03L124.14 82.63L123.84 81.25L19.98 81.25L19.16 81.24L18.34 81.19L17.54 81.11L16.74 80.99L15.95 80.85L15.18 80.67L14.42 80.47L13.66 80.24L12.93 79.97L12.2 79.68L11.49 79.37L10.8 79.02L10.12 78.66L9.46 78.26L8.81 77.84L8.18 77.4L7.57 76.93L6.98 76.44L6.4 75.93L5.85 75.4L5.32 74.85L4.81 74.28L4.32 73.69L3.85 73.07L3.41 72.45L2.99 71.8L2.6 71.14L2.23 70.46L1.89 69.76L1.57 69.05L1.28 68.33L1.02 67.59L0.79 66.84L0.58 66.08L0.41 65.3L0.26 64.51L0.15 63.72L0.07 62.91L0.02 62.1L0 61.27L0.02 60.45L0.07 59.63L0.15 58.83L0.26 58.03L0.41 57.25L0.58 56.47L0.79 55.71L1.02 54.96L1.28 54.22L1.57 53.5L1.89 52.79L2.23 52.09L2.6 51.41L2.99 50.75L3.41 50.1L3.85 49.47L4.32 48.86L4.81 48.27L5.32 47.7L5.85 47.14L6.4 46.61L6.98 46.1L7.57 45.61L8.18 45.15L8.81 44.71L9.46 44.29L10.12 43.89L10.8 43.52L11.49 43.18L12.2 42.86L12.93 42.57L13.66 42.31L14.42 42.08L15.18 41.87L15.95 41.7L16.74 41.55L17.54 41.44L18.34 41.36L19.16 41.31L19.98 41.29L139.86 41.29L140.56 41.31L141.26 41.34ZM235.81 400.94L567.02 400.94L635.53 161.18L182.53 161.18L235.81 400.94Z" id="c1keAX31t7"></path><path d="M264.65 521.02L267.07 521.27L269.46 521.61L271.81 522.04L274.13 522.57L276.42 523.18L278.67 523.89L280.88 524.67L283.06 525.54L285.18 526.49L287.27 527.52L289.31 528.63L291.3 529.82L293.24 531.08L295.12 532.4L296.96 533.8L298.73 535.27L300.45 536.8L302.11 538.4L303.71 540.06L305.24 541.78L306.71 543.56L308.11 545.39L309.44 547.28L310.69 549.21L311.88 551.2L312.99 553.24L314.02 555.33L314.97 557.46L315.84 559.63L316.63 561.84L317.33 564.09L317.94 566.38L318.47 568.7L318.9 571.06L319.24 573.44L319.49 575.86L319.64 578.3L319.69 580.77L319.64 583.23L319.49 585.67L319.24 588.09L318.9 590.48L318.47 592.83L317.94 595.15L317.33 597.44L316.63 599.69L315.84 601.9L314.97 604.07L314.02 606.2L312.99 608.29L311.88 610.33L310.69 612.32L309.44 614.26L308.11 616.14L306.71 617.98L305.24 619.75L303.71 621.47L302.11 623.13L300.45 624.73L298.73 626.26L296.96 627.73L295.12 629.13L293.24 630.46L291.3 631.71L289.31 632.9L287.27 634.01L285.18 635.04L283.06 635.99L280.88 636.86L278.67 637.65L276.42 638.35L274.13 638.96L271.81 639.49L269.46 639.92L267.07 640.26L264.65 640.51L262.21 640.66L259.75 640.71L257.28 640.66L254.84 640.51L252.42 640.26L250.04 639.92L247.68 639.49L245.36 638.96L243.07 638.35L240.82 637.65L238.61 636.86L236.44 635.99L234.31 635.04L232.22 634.01L230.18 632.9L228.2 631.71L226.26 630.46L224.37 629.13L222.54 627.73L220.76 626.26L219.04 624.73L217.38 623.13L215.78 621.47L214.25 619.75L212.78 617.98L211.39 616.14L210.06 614.26L208.8 612.32L207.61 610.33L206.51 608.29L205.47 606.2L204.52 604.07L203.65 601.9L202.87 599.69L202.16 597.44L201.55 595.15L201.02 592.83L200.59 590.48L200.25 588.09L200 585.67L199.85 583.23L199.8 580.77L199.85 578.3L200 575.86L200.25 573.44L200.59 571.06L201.02 568.7L201.55 566.38L202.16 564.09L202.87 561.84L203.65 559.63L204.52 557.46L205.47 555.33L206.51 553.24L207.61 551.2L208.8 549.21L210.06 547.28L211.39 545.39L212.78 543.56L214.25 541.78L215.78 540.06L217.38 538.4L219.04 536.8L220.76 535.27L222.54 533.8L224.37 532.4L226.26 531.08L228.2 529.82L230.18 528.63L232.22 527.52L234.31 526.49L236.44 525.54L238.61 524.67L240.82 523.89L243.07 523.18L245.36 522.57L247.68 522.04L250.04 521.61L252.42 521.27L254.84 521.02L257.28 520.87L259.75 520.82L262.21 520.87L264.65 521.02ZM257.15 560.95L255.88 561.16L254.64 561.45L253.44 561.81L252.26 562.24L251.13 562.74L250.03 563.31L248.97 563.95L247.95 564.65L246.99 565.4L246.07 566.22L245.2 567.09L244.38 568.01L243.63 568.97L242.93 569.99L242.29 571.05L241.72 572.15L241.22 573.28L240.79 574.46L240.43 575.66L240.14 576.9L239.93 578.16L239.81 579.45L239.77 580.77L239.81 582.08L239.93 583.37L240.14 584.63L240.43 585.87L240.79 587.07L241.22 588.25L241.72 589.38L242.29 590.48L242.93 591.54L243.63 592.56L244.38 593.53L245.2 594.45L246.07 595.31L246.99 596.13L247.95 596.89L248.97 597.58L250.03 598.22L251.13 598.79L252.26 599.29L253.44 599.73L254.64 600.09L255.88 600.37L257.15 600.58L258.43 600.7L259.75 600.75L261.06 600.7L262.35 600.58L263.61 600.37L264.85 600.09L266.05 599.73L267.23 599.29L268.36 598.79L269.46 598.22L270.52 597.58L271.54 596.89L272.51 596.13L273.43 595.31L274.29 594.45L275.11 593.53L275.87 592.56L276.56 591.54L277.2 590.48L277.77 589.38L278.27 588.25L278.71 587.07L279.07 585.87L279.35 584.63L279.56 583.37L279.68 582.08L279.73 580.77L279.68 579.45L279.56 578.16L279.35 576.9L279.07 575.66L278.71 574.46L278.27 573.28L277.77 572.15L277.2 571.05L276.56 569.99L275.87 568.97L275.11 568.01L274.29 567.09L273.43 566.22L272.51 565.4L271.54 564.65L270.52 563.95L269.46 563.31L268.36 562.74L267.23 562.24L266.05 561.81L264.85 561.45L263.61 561.16L262.35 560.95L261.06 560.83L259.75 560.79L258.43 560.83L257.15 560.95Z" id="hanmirRm"></path><path d="M547.05 521.02L549.46 521.27L551.85 521.61L554.2 522.04L556.52 522.57L558.81 523.18L561.06 523.89L563.27 524.67L565.45 525.54L567.57 526.49L569.66 527.52L571.7 528.63L573.69 529.82L575.63 531.08L577.51 532.4L579.35 533.8L581.12 535.27L582.84 536.8L584.5 538.4L586.1 540.06L587.63 541.78L589.1 543.56L590.5 545.39L591.83 547.28L593.08 549.21L594.27 551.2L595.38 553.24L596.41 555.33L597.36 557.46L598.23 559.63L599.02 561.84L599.72 564.09L600.33 566.38L600.86 568.7L601.29 571.06L601.63 573.44L601.88 575.86L602.03 578.3L602.08 580.77L602.03 583.23L601.88 585.67L601.63 588.09L601.29 590.48L600.86 592.83L600.33 595.15L599.72 597.44L599.02 599.69L598.23 601.9L597.36 604.07L596.41 606.2L595.38 608.29L594.27 610.33L593.08 612.32L591.83 614.26L590.5 616.14L589.1 617.98L587.63 619.75L586.1 621.47L584.5 623.13L582.84 624.73L581.12 626.26L579.35 627.73L577.51 629.13L575.63 630.46L573.69 631.71L571.7 632.9L569.66 634.01L567.57 635.04L565.45 635.99L563.27 636.86L561.06 637.65L558.81 638.35L556.52 638.96L554.2 639.49L551.85 639.92L549.46 640.26L547.05 640.51L544.6 640.66L542.14 640.71L539.67 640.66L537.23 640.51L534.81 640.26L532.43 639.92L530.07 639.49L527.75 638.96L525.46 638.35L523.21 637.65L521 636.86L518.83 635.99L516.7 635.04L514.61 634.01L512.58 632.9L510.59 631.71L508.65 630.46L506.76 629.13L504.93 627.73L503.15 626.26L501.43 624.73L499.77 623.13L498.17 621.47L496.64 619.75L495.17 617.98L493.78 616.14L492.45 614.26L491.19 612.32L490 610.33L488.9 608.29L487.86 606.2L486.91 604.07L486.04 601.9L485.26 599.69L484.55 597.44L483.94 595.15L483.42 592.83L482.98 590.48L482.64 588.09L482.39 585.67L482.25 583.23L482.2 580.77L482.25 578.3L482.39 575.86L482.64 573.44L482.98 571.06L483.42 568.7L483.94 566.38L484.55 564.09L485.26 561.84L486.04 559.63L486.91 557.46L487.86 555.33L488.9 553.24L490 551.2L491.19 549.21L492.45 547.28L493.78 545.39L495.17 543.56L496.64 541.78L498.17 540.06L499.77 538.4L501.43 536.8L503.15 535.27L504.93 533.8L506.76 532.4L508.65 531.08L510.59 529.82L512.58 528.63L514.61 527.52L516.7 526.49L518.83 525.54L521 524.67L523.21 523.89L525.46 523.18L527.75 522.57L530.07 522.04L532.43 521.61L534.81 521.27L537.23 521.02L539.67 520.87L542.14 520.82L544.6 520.87L547.05 521.02ZM539.54 560.95L538.27 561.16L537.03 561.45L535.83 561.81L534.66 562.24L533.52 562.74L532.42 563.31L531.36 563.95L530.34 564.65L529.38 565.4L528.46 566.22L527.59 567.09L526.77 568.01L526.02 568.97L525.32 569.99L524.68 571.05L524.11 572.15L523.61 573.28L523.18 574.46L522.82 575.66L522.53 576.9L522.32 578.16L522.2 579.45L522.16 580.77L522.2 582.08L522.32 583.37L522.53 584.63L522.82 585.87L523.18 587.07L523.61 588.25L524.11 589.38L524.68 590.48L525.32 591.54L526.02 592.56L526.77 593.53L527.59 594.45L528.46 595.31L529.38 596.13L530.34 596.89L531.36 597.58L532.42 598.22L533.52 598.79L534.66 599.29L535.83 599.73L537.03 600.09L538.27 600.37L539.54 600.58L540.82 600.7L542.14 600.75L543.45 600.7L544.74 600.58L546 600.37L547.24 600.09L548.44 599.73L549.62 599.29L550.76 598.79L551.85 598.22L552.91 597.58L553.93 596.89L554.9 596.13L555.82 595.31L556.68 594.45L557.5 593.53L558.26 592.56L558.95 591.54L559.59 590.48L560.16 589.38L560.66 588.25L561.1 587.07L561.46 585.87L561.74 584.63L561.95 583.37L562.07 582.08L562.12 580.77L562.07 579.45L561.95 578.16L561.74 576.9L561.46 575.66L561.1 574.46L560.66 573.28L560.16 572.15L559.59 571.05L558.95 569.99L558.26 568.97L557.5 568.01L556.68 567.09L555.82 566.22L554.9 565.4L553.93 564.65L552.91 563.95L551.85 563.31L550.76 562.74L549.62 562.24L548.44 561.81L547.24 561.45L546 561.16L544.74 560.95L543.45 560.83L542.14 560.79L540.82 560.83L539.54 560.95Z" id="b1dWtN3kol"></path></defs><g><g><g><use xlink:href="#c1keAX31t7" opacity="1" fill="#ffffff" fill-opacity="1"></use><g><use xlink:href="#c1keAX31t7" opacity="1" fill-opacity="0" stroke="#000000" stroke-width="1" stroke-opacity="0"></use></g></g><g><use xlink:href="#hanmirRm" opacity="1" fill="#ffffff" fill-opacity="1"></use><g><use xlink:href="#hanmirRm" opacity="1" fill-opacity="0" stroke="#000000" stroke-width="1" stroke-opacity="0"></use></g></g><g><use xlink:href="#b1dWtN3kol" opacity="1" fill="#ffffff" fill-opacity="1"></use><g><use xlink:href="#b1dWtN3kol" opacity="1" fill-opacity="0" stroke="#000000" stroke-width="1" stroke-opacity="0"></use></g></g></g></g></svg>