<?xml version="1.0" encoding="UTF-8" standalone="no"?>
<!DOCTYPE svg PUBLIC "-//W3C//DTD SVG 1.1//EN" "http://www.w3.org/Graphics/SVG/1.1/DTD/svg11.dtd">
<svg version="1.1" xmlns="http://www.w3.org/2000/svg" xmlns:xlink="http://www.w3.org/1999/xlink" preserveAspectRatio="xMidYMid meet" viewBox="0 0 640 640" width="640" height="640"><defs><path d="M405.63 0.01L405.83 0.02L406.02 0.03L406.22 0.05L406.42 0.07L406.61 0.1L406.81 0.12L407 0.16L407.19 0.19L407.38 0.23L407.57 0.28L407.76 0.33L407.95 0.38L408.14 0.43L408.33 0.49L408.51 0.55L408.7 0.62L408.88 0.69L409.06 0.76L409.24 0.84L409.42 0.92L409.59 1L409.77 1.09L409.94 1.18L410.11 1.27L410.28 1.37L410.45 1.47L410.62 1.57L410.78 1.68L410.94 1.79L411.1 1.9L411.26 2.02L411.42 2.14L411.57 2.26L411.72 2.39L411.87 2.52L412.02 2.65L412.16 2.79L412.3 2.93L463.38 54.01L474.38 54.01L474.58 54.01L474.78 54.01L474.97 54.02L475.17 54.04L475.37 54.05L475.56 54.08L475.76 54.1L475.95 54.13L476.15 54.16L476.34 54.2L476.53 54.24L476.72 54.28L476.91 54.33L477.1 54.38L477.29 54.44L477.47 54.5L477.66 54.56L477.84 54.62L478.02 54.69L478.21 54.77L478.38 54.84L478.56 54.92L478.74 55.01L478.91 55.09L479.09 55.18L479.26 55.28L479.43 55.37L479.6 55.47L479.76 55.58L479.93 55.69L480.09 55.8L480.25 55.91L480.41 56.03L480.56 56.15L480.72 56.27L480.87 56.4L481.02 56.53L481.16 56.66L481.31 56.8L481.45 56.93L488.19 63.67L494.93 56.93L495.22 56.64L495.53 56.37L495.84 56.12L496.17 55.88L496.5 55.65L496.83 55.44L497.17 55.24L497.52 55.06L497.88 54.89L498.24 54.73L498.6 54.6L498.97 54.47L499.34 54.36L499.71 54.27L500.09 54.19L500.47 54.12L500.85 54.07L501.23 54.03L501.62 54.01L502 54L502.38 54.01L502.77 54.03L503.15 54.07L503.53 54.12L503.91 54.19L504.29 54.27L504.66 54.36L505.03 54.47L505.4 54.6L505.76 54.73L506.12 54.89L506.47 55.06L506.82 55.24L507.17 55.44L507.5 55.65L507.83 55.88L508.15 56.12L508.47 56.37L508.77 56.64L509.07 56.93L509.36 57.23L509.63 57.53L509.88 57.85L510.12 58.17L510.35 58.5L510.56 58.84L510.76 59.18L510.94 59.53L511.11 59.88L511.27 60.24L511.41 60.6L511.53 60.97L511.64 61.34L511.74 61.72L511.82 62.09L511.88 62.47L511.93 62.85L511.97 63.23L511.99 63.62L512 64L511.99 64.39L511.97 64.77L511.93 65.15L511.88 65.53L511.82 65.91L511.74 66.29L511.64 66.66L511.53 67.03L511.41 67.4L511.27 67.77L511.11 68.12L510.94 68.48L510.76 68.83L510.56 69.17L510.35 69.5L510.12 69.83L509.88 70.16L509.63 70.47L509.36 70.78L509.07 71.07L502.33 77.81L509.07 84.55L509.21 84.69L509.34 84.84L509.47 84.98L509.6 85.13L509.73 85.28L509.85 85.44L509.97 85.59L510.09 85.75L510.21 85.91L510.32 86.07L510.42 86.24L510.53 86.4L510.63 86.57L510.72 86.74L510.82 86.91L510.91 87.09L510.99 87.26L511.08 87.44L511.16 87.62L511.23 87.8L511.31 87.98L511.38 88.16L511.44 88.34L511.5 88.53L511.56 88.71L511.62 88.9L511.67 89.09L511.72 89.28L511.76 89.47L511.8 89.66L511.84 89.85L511.87 90.05L511.9 90.24L511.93 90.44L511.95 90.63L511.96 90.83L511.98 91.03L511.99 91.23L511.99 91.42L512 91.62L512 233.31L511.99 233.51L511.99 233.71L511.98 233.9L511.96 234.1L511.95 234.3L511.93 234.49L511.9 234.69L511.87 234.88L511.84 235.08L511.8 235.27L511.76 235.46L511.72 235.65L511.67 235.84L511.62 236.03L511.56 236.22L511.5 236.4L511.44 236.59L511.38 236.77L511.31 236.95L511.23 237.13L511.16 237.31L511.08 237.49L510.99 237.67L510.91 237.84L510.82 238.02L510.72 238.19L510.63 238.36L510.53 238.53L510.42 238.69L510.32 238.86L510.21 239.02L510.09 239.18L509.97 239.34L509.85 239.49L509.73 239.65L509.6 239.8L509.47 239.95L509.34 240.09L509.21 240.24L509.07 240.38L410.88 338.57L410.58 338.86L410.27 339.13L409.96 339.38L409.64 339.63L409.31 339.85L408.97 340.06L408.63 340.26L408.28 340.44L407.93 340.61L407.57 340.77L407.2 340.91L406.84 341.03L406.46 341.14L406.09 341.24L405.71 341.32L405.33 341.38L404.95 341.43L404.57 341.47L404.19 341.49L403.8 341.5L403.42 341.49L403.04 341.47L402.65 341.43L402.27 341.38L401.89 341.32L401.52 341.24L401.14 341.14L400.77 341.03L400.4 340.91L400.04 340.77L399.68 340.61L399.33 340.44L398.98 340.26L398.64 340.06L398.3 339.85L397.97 339.63L397.65 339.38L397.34 339.13L397.03 338.86L396.73 338.57L396.45 338.27L396.18 337.97L395.92 337.65L395.68 337.33L395.45 337L395.24 336.67L395.04 336.32L394.86 335.98L394.69 335.62L394.54 335.26L394.4 334.9L394.27 334.53L394.16 334.16L394.07 333.79L393.99 333.41L393.92 333.03L393.87 332.65L393.83 332.27L393.81 331.88L393.8 331.5L393.81 331.12L393.83 330.73L393.87 330.35L393.92 329.97L393.99 329.59L394.07 329.21L394.16 328.84L394.27 328.47L394.4 328.1L394.54 327.74L394.69 327.38L394.86 327.02L395.04 326.68L395.24 326.33L395.45 326L395.68 325.67L395.92 325.35L396.18 325.03L396.45 324.73L396.73 324.43L492 229.16L492 95.77L488.19 91.96L465.06 115.08L465.2 115.38L465.34 115.67L465.47 115.97L465.6 116.27L465.73 116.57L465.85 116.87L465.97 117.18L466.09 117.49L466.2 117.79L466.31 118.1L466.42 118.41L466.53 118.73L466.63 119.04L466.72 119.36L466.82 119.67L466.91 119.99L466.99 120.31L467.08 120.63L467.16 120.95L467.23 121.28L467.31 121.6L467.38 121.93L467.44 122.26L467.5 122.59L467.56 122.92L467.62 123.25L467.67 123.58L467.72 123.92L467.76 124.25L467.8 124.59L467.84 124.92L467.87 125.26L467.9 125.6L467.93 125.94L467.95 126.28L467.96 126.63L467.98 126.97L467.99 127.32L467.99 127.66L468 128.01L467.97 129.24L467.9 130.46L467.77 131.67L467.6 132.87L467.38 134.05L467.12 135.21L466.81 136.35L466.46 137.48L466.07 138.59L465.63 139.67L465.16 140.74L464.64 141.78L464.09 142.8L463.49 143.8L462.87 144.77L462.2 145.71L461.5 146.63L460.77 147.52L460 148.38L459.2 149.21L458.37 150.01L457.51 150.78L456.62 151.51L455.7 152.21L454.76 152.88L453.79 153.51L452.79 154.1L451.77 154.65L450.73 155.17L449.66 155.65L448.58 156.08L447.47 156.48L446.34 156.83L445.2 157.13L444.03 157.4L442.86 157.61L441.66 157.78L440.45 157.91L439.23 157.98L438 158.01L436.76 157.98L435.54 157.91L434.33 157.78L433.14 157.61L431.96 157.4L430.8 157.13L429.65 156.83L428.52 156.48L427.42 156.08L426.33 155.65L425.26 155.17L424.22 154.65L423.2 154.1L422.21 153.51L421.23 152.88L420.29 152.21L419.37 151.51L418.48 150.78L417.62 150.01L416.79 149.21L415.99 148.38L415.23 147.52L414.49 146.63L413.79 145.71L413.13 144.77L412.5 143.8L411.9 142.8L411.35 141.78L410.83 140.74L410.36 139.67L409.92 138.59L409.53 137.48L409.18 136.35L408.87 135.21L408.61 134.05L408.39 132.87L408.22 131.67L408.1 130.46L408.02 129.24L408 128.01L408.02 126.77L408.1 125.55L408.22 124.34L408.39 123.15L408.61 121.97L408.87 120.81L409.18 119.66L409.53 118.54L409.92 117.43L410.36 116.34L410.83 115.28L411.35 114.23L411.9 113.21L412.5 112.22L413.13 111.25L413.79 110.3L414.49 109.38L415.23 108.49L415.99 107.63L416.79 106.8L417.62 106.01L418.48 105.24L419.37 104.5L420.29 103.8L421.23 103.14L422.21 102.51L423.2 101.92L424.22 101.36L425.26 100.85L426.33 100.37L427.42 99.93L428.52 99.54L429.65 99.19L430.8 98.88L431.96 98.62L433.14 98.4L434.33 98.23L435.54 98.11L436.76 98.03L438 98.01L438.34 98.01L438.69 98.02L439.03 98.03L439.38 98.04L439.72 98.06L440.06 98.08L440.4 98.1L440.74 98.13L441.08 98.17L441.42 98.2L441.75 98.24L442.09 98.29L442.42 98.33L442.75 98.39L443.09 98.44L443.42 98.5L443.75 98.56L444.07 98.63L444.4 98.7L444.72 98.77L445.05 98.85L445.37 98.93L445.69 99.01L446.01 99.1L446.33 99.19L446.65 99.28L446.96 99.38L447.28 99.48L447.59 99.58L447.9 99.69L448.21 99.8L448.52 99.91L448.82 100.03L449.13 100.15L449.43 100.27L449.73 100.4L450.03 100.53L450.33 100.66L450.63 100.8L450.92 100.94L474.05 77.82L470.24 74.01L336.84 74.01L78.69 332.15L78.47 332.38L78.25 332.62L78.03 332.85L77.82 333.09L77.62 333.33L77.42 333.58L77.23 333.83L77.04 334.08L76.86 334.34L76.68 334.6L76.51 334.86L76.34 335.12L76.18 335.39L76.03 335.66L75.88 335.94L75.73 336.21L75.6 336.49L75.46 336.77L75.33 337.06L75.21 337.35L75.1 337.63L74.99 337.93L74.88 338.22L74.78 338.51L74.69 338.81L74.6 339.11L74.52 339.41L74.44 339.72L74.37 340.02L74.31 340.33L74.25 340.64L74.2 340.95L74.15 341.26L74.11 341.57L74.08 341.89L74.05 342.2L74.03 342.52L74.01 342.84L74 343.16L74 343.48L74 343.8L74.01 344.12L74.03 344.43L74.05 344.75L74.08 345.07L74.11 345.38L74.15 345.69L74.2 346.01L74.25 346.32L74.31 346.63L74.37 346.93L74.44 347.24L74.52 347.54L74.6 347.84L74.69 348.14L74.78 348.44L74.88 348.73L74.99 349.03L75.1 349.32L75.21 349.61L75.33 349.89L75.46 350.18L75.6 350.46L75.73 350.74L75.88 351.02L76.03 351.29L76.18 351.56L76.34 351.83L76.51 352.09L76.68 352.36L76.86 352.62L77.04 352.87L77.23 353.12L77.42 353.37L77.62 353.62L77.82 353.86L78.03 354.1L78.25 354.34L78.47 354.57L78.69 354.8L211.2 487.31L211.43 487.53L211.66 487.75L211.9 487.97L212.14 488.18L212.38 488.38L212.63 488.58L212.88 488.77L213.13 488.96L213.39 489.14L213.65 489.32L213.91 489.49L214.17 489.66L214.44 489.82L214.71 489.97L214.99 490.12L215.26 490.27L215.54 490.41L215.82 490.54L216.11 490.67L216.39 490.79L216.68 490.91L216.97 491.02L217.27 491.12L217.56 491.22L217.86 491.31L218.16 491.4L218.46 491.48L218.77 491.56L219.07 491.63L219.38 491.69L219.69 491.75L220 491.8L220.31 491.85L220.62 491.89L220.93 491.92L221.25 491.95L221.57 491.97L221.89 491.99L222.21 492L222.53 492L222.85 492L223.16 491.99L223.48 491.97L223.8 491.95L224.12 491.92L224.43 491.89L224.74 491.85L225.06 491.8L225.37 491.75L225.67 491.69L225.98 491.63L226.29 491.56L226.59 491.48L226.89 491.4L227.19 491.31L227.49 491.22L227.78 491.12L228.08 491.02L228.37 490.91L228.66 490.79L228.94 490.67L229.23 490.54L229.51 490.41L229.79 490.27L230.06 490.12L230.34 489.97L230.61 489.82L230.88 489.66L231.14 489.49L231.4 489.32L231.66 489.14L231.92 488.96L232.17 488.77L232.42 488.58L232.67 488.38L232.91 488.18L233.15 487.97L233.39 487.75L233.62 487.53L233.85 487.31L333.1 388.07L333.39 387.78L333.7 387.51L334.01 387.25L334.33 387.01L334.66 386.78L335 386.57L335.34 386.37L335.69 386.19L336.04 386.02L336.4 385.87L336.77 385.73L337.13 385.61L337.5 385.5L337.88 385.4L338.26 385.32L338.64 385.25L339.02 385.2L339.4 385.17L339.78 385.15L340.17 385.14L340.55 385.15L340.93 385.17L341.32 385.2L341.7 385.26L342.08 385.32L342.45 385.4L342.83 385.5L343.2 385.61L343.57 385.73L343.93 385.87L344.29 386.02L344.64 386.19L344.99 386.37L345.33 386.57L345.67 386.78L346 387.01L346.32 387.25L346.63 387.51L346.94 387.78L347.24 388.07L347.52 388.36L347.79 388.67L348.05 388.98L348.29 389.31L348.52 389.63L348.73 389.97L348.93 390.31L349.11 390.66L349.28 391.02L349.43 391.37L349.57 391.74L349.7 392.1L349.81 392.48L349.9 392.85L349.98 393.23L350.05 393.61L350.1 393.99L350.14 394.37L350.16 394.75L350.17 395.14L350.16 395.52L350.14 395.9L350.1 396.29L350.05 396.67L349.98 397.05L349.9 397.42L349.81 397.8L349.7 398.17L349.57 398.54L349.43 398.9L349.28 399.26L349.11 399.61L348.93 399.96L348.73 400.3L348.52 400.64L348.29 400.97L348.05 401.29L347.79 401.6L347.52 401.91L347.24 402.21L247.99 501.45L247.48 501.96L246.95 502.45L246.42 502.93L245.88 503.4L245.34 503.86L244.78 504.31L244.22 504.74L243.65 505.16L243.08 505.57L242.5 505.97L241.91 506.36L241.31 506.73L240.71 507.09L240.1 507.44L239.48 507.78L238.86 508.1L238.23 508.42L237.6 508.72L236.96 509L236.31 509.28L235.67 509.54L235.01 509.79L234.35 510.02L233.69 510.25L233.02 510.46L232.34 510.65L231.67 510.84L230.98 511.01L230.3 511.17L229.61 511.31L228.91 511.44L228.21 511.56L227.51 511.66L226.81 511.75L226.1 511.83L225.39 511.89L224.68 511.94L223.96 511.97L223.25 511.99L222.53 512L221.81 511.99L221.09 511.97L220.37 511.94L219.66 511.89L218.95 511.83L218.24 511.75L217.54 511.66L216.84 511.56L216.14 511.44L215.44 511.31L214.75 511.17L214.07 511.01L213.39 510.84L212.71 510.65L212.03 510.46L211.36 510.25L210.7 510.02L210.04 509.79L209.39 509.54L208.74 509.28L208.09 509L207.45 508.72L206.82 508.42L206.19 508.1L205.57 507.78L204.95 507.44L204.34 507.09L203.74 506.73L203.15 506.36L202.56 505.97L201.97 505.57L201.4 505.16L200.83 504.74L200.27 504.31L199.71 503.86L199.17 503.4L198.63 502.93L198.1 502.45L197.57 501.96L197.06 501.45L64.55 368.94L64.04 368.43L63.55 367.91L63.07 367.37L62.6 366.84L62.14 366.29L61.7 365.74L61.26 365.17L60.84 364.61L60.43 364.03L60.03 363.45L59.65 362.86L59.27 362.26L58.91 361.66L58.56 361.05L58.22 360.43L57.9 359.81L57.59 359.18L57.29 358.55L57 357.91L56.72 357.27L56.46 356.62L56.21 355.96L55.98 355.3L55.76 354.64L55.55 353.97L55.35 353.29L55.16 352.62L54.99 351.93L54.84 351.25L54.69 350.56L54.56 349.86L54.45 349.17L54.34 348.47L54.25 347.76L54.18 347.05L54.11 346.34L54.06 345.63L54.03 344.92L54.01 344.2L54 343.48L54.01 342.76L54.03 342.04L54.06 341.32L54.11 340.61L54.18 339.9L54.25 339.19L54.34 338.49L54.45 337.79L54.56 337.09L54.69 336.4L54.84 335.71L54.99 335.02L55.16 334.34L55.35 333.66L55.55 332.99L55.76 332.32L55.98 331.65L56.21 330.99L56.46 330.34L56.72 329.69L57 329.04L57.29 328.4L57.59 327.77L57.9 327.14L58.22 326.52L58.56 325.91L58.91 325.3L59.27 324.69L59.65 324.1L60.03 323.51L60.43 322.92L60.84 322.35L61.26 321.78L61.7 321.22L62.14 320.66L62.6 320.12L63.07 319.58L63.55 319.05L64.04 318.53L64.55 318.01L123.13 259.43L36.01 259.43L34.53 259.4L33.07 259.31L31.61 259.16L30.18 258.95L28.77 258.69L27.37 258.38L26 258.01L24.64 257.59L23.31 257.11L22.01 256.59L20.73 256.02L19.48 255.4L18.25 254.73L17.06 254.02L15.89 253.27L14.76 252.47L13.66 251.63L12.59 250.75L11.56 249.83L10.56 248.87L9.6 247.87L8.68 246.84L7.8 245.77L6.96 244.67L6.16 243.53L5.4 242.37L4.69 241.17L4.03 239.95L3.41 238.7L2.84 237.42L2.31 236.11L1.84 234.78L1.42 233.43L1.05 232.06L0.73 230.66L0.47 229.25L0.27 227.81L0.12 226.36L0.03 224.89L0 223.41L0 36.01L0.03 34.53L0.12 33.06L0.27 31.61L0.47 30.18L0.73 28.76L1.05 27.37L1.42 25.99L1.84 24.64L2.31 23.31L2.84 22.01L3.41 20.73L4.03 19.48L4.69 18.25L5.4 17.06L6.16 15.89L6.96 14.76L7.8 13.66L8.68 12.59L9.6 11.56L10.56 10.56L11.56 9.6L12.59 8.68L13.66 7.8L14.76 6.96L15.89 6.16L17.06 5.4L18.25 4.69L19.48 4.03L20.73 3.41L22.01 2.83L23.31 2.31L24.64 1.84L26 1.42L27.37 1.05L28.77 0.73L30.18 0.47L31.61 0.27L33.07 0.12L34.53 0.03L36.01 0L405.23 0L405.43 0L405.63 0.01ZM35.36 20.01L34.7 20.05L34.06 20.12L33.42 20.21L32.79 20.33L32.17 20.47L31.56 20.63L30.96 20.82L30.37 21.03L29.79 21.26L29.22 21.51L28.66 21.79L28.12 22.09L27.59 22.4L27.07 22.74L26.56 23.09L26.07 23.47L25.6 23.86L25.14 24.27L24.7 24.7L24.27 25.14L23.86 25.6L23.47 26.07L23.09 26.56L22.74 27.07L22.4 27.58L22.09 28.12L21.79 28.66L21.52 29.22L21.26 29.79L21.03 30.37L20.82 30.96L20.63 31.56L20.47 32.17L20.33 32.79L20.21 33.42L20.12 34.06L20.05 34.7L20.01 35.35L20 36.01L20 223.41L20.01 224.07L20.05 224.72L20.12 225.37L20.21 226.01L20.33 226.63L20.47 227.26L20.63 227.87L20.82 228.47L21.03 229.06L21.26 229.64L21.52 230.21L21.79 230.76L22.09 231.31L22.4 231.84L22.74 232.36L23.09 232.86L23.47 233.35L23.86 233.83L24.27 234.29L24.7 234.73L25.14 235.16L25.6 235.57L26.07 235.96L26.56 236.33L27.07 236.69L27.59 237.02L28.12 237.34L28.66 237.64L29.22 237.91L29.79 238.16L30.37 238.4L30.96 238.61L31.56 238.79L32.17 238.96L32.79 239.1L33.42 239.22L34.06 239.31L34.7 239.37L35.36 239.41L36.01 239.43L143.13 239.43L183.38 199.18L183.28 199.19L183.19 199.21L183.1 199.22L183 199.23L182.91 199.24L182.82 199.25L182.72 199.26L182.63 199.27L182.53 199.28L182.44 199.29L182.34 199.3L182.25 199.31L182.16 199.31L182.06 199.32L181.97 199.33L181.87 199.34L181.78 199.35L181.68 199.35L181.59 199.36L181.49 199.37L181.4 199.37L181.3 199.38L181.21 199.38L181.11 199.39L181.02 199.39L180.92 199.4L180.83 199.4L180.73 199.41L180.64 199.41L180.54 199.41L180.44 199.42L180.35 199.42L180.25 199.42L180.16 199.43L180.06 199.43L179.96 199.43L179.87 199.43L179.77 199.43L179.68 199.43L179.58 199.43L178.34 199.41L177.12 199.33L175.91 199.21L174.72 199.04L173.54 198.82L172.38 198.56L171.23 198.25L170.11 197.9L169 197.51L167.91 197.07L166.85 196.59L165.8 196.08L164.78 195.52L163.79 194.93L162.82 194.3L161.87 193.64L160.95 192.94L160.06 192.2L159.2 191.43L158.37 190.63L157.57 189.8L156.81 188.94L156.07 188.05L155.37 187.14L154.71 186.19L154.08 185.22L153.48 184.23L152.93 183.21L152.41 182.16L151.94 181.1L151.5 180.01L151.11 178.9L150.76 177.78L150.45 176.63L150.19 175.47L149.97 174.29L149.8 173.09L149.68 171.89L149.6 170.66L149.58 169.43L149.6 168.19L149.68 166.97L149.8 165.76L149.97 164.57L150.19 163.39L150.45 162.23L150.76 161.08L151.11 159.96L151.5 158.85L151.94 157.76L152.41 156.7L152.93 155.65L153.49 154.63L154.08 153.64L154.71 152.67L155.37 151.72L156.07 150.8L156.81 149.91L157.57 149.05L158.37 148.22L159.2 147.42L160.06 146.66L160.95 145.92L161.87 145.22L162.82 144.56L163.79 143.93L164.78 143.33L165.8 142.78L166.85 142.26L167.91 141.79L169 141.35L170.11 140.96L171.23 140.61L172.38 140.3L173.54 140.04L174.72 139.82L175.91 139.65L177.12 139.53L178.34 139.45L179.58 139.43L180.81 139.45L182.04 139.53L183.24 139.65L184.44 139.82L185.62 140.04L186.78 140.3L187.93 140.61L189.05 140.96L190.16 141.35L191.25 141.79L192.31 142.26L193.36 142.78L194.38 143.33L195.37 143.93L196.34 144.56L197.29 145.22L198.2 145.92L199.09 146.66L199.95 147.42L200.78 148.22L201.58 149.05L202.35 149.91L203.08 150.8L203.79 151.72L204.45 152.67L205.08 153.64L205.67 154.63L206.23 155.65L206.74 156.7L207.22 157.76L207.66 158.85L208.05 159.96L208.4 161.08L208.71 162.23L208.97 163.39L209.19 164.57L209.36 165.76L209.48 166.97L209.56 168.19L209.58 169.43L209.58 169.53L209.58 169.62L209.58 169.72L209.58 169.81L209.58 169.91L209.58 170.01L209.57 170.1L209.57 170.2L209.57 170.29L209.56 170.39L209.56 170.49L209.56 170.58L209.55 170.68L209.55 170.77L209.54 170.87L209.54 170.96L209.53 171.06L209.53 171.15L209.52 171.25L209.52 171.34L209.51 171.44L209.5 171.53L209.5 171.63L209.49 171.72L209.48 171.82L209.47 171.91L209.46 172.01L209.46 172.1L209.45 172.2L209.44 172.29L209.43 172.38L209.42 172.48L209.41 172.57L209.4 172.67L209.39 172.76L209.38 172.85L209.37 172.95L209.36 173.04L209.34 173.13L209.33 173.23L325.63 56.94L325.77 56.8L325.91 56.66L326.06 56.53L326.21 56.4L326.36 56.27L326.51 56.15L326.67 56.03L326.83 55.91L326.99 55.8L327.15 55.69L327.31 55.58L327.48 55.48L327.65 55.38L327.82 55.28L327.99 55.18L328.16 55.09L328.34 55.01L328.51 54.92L328.69 54.84L328.87 54.77L329.05 54.69L329.23 54.63L329.42 54.56L329.6 54.5L329.79 54.44L329.98 54.38L330.16 54.33L330.35 54.28L330.54 54.24L330.74 54.2L330.93 54.16L331.12 54.13L331.32 54.1L331.51 54.08L331.71 54.06L331.9 54.04L332.1 54.02L332.3 54.01L332.5 54.01L332.7 54.01L435.1 54.01L401.09 20L36.01 20L35.36 20.01ZM176.92 159.78L175.69 160.21L174.53 160.79L173.47 161.51L172.51 162.36L171.66 163.32L170.94 164.38L170.36 165.54L169.93 166.77L169.67 168.07L169.58 169.43L169.67 170.79L169.93 172.09L170.36 173.32L170.94 174.47L171.66 175.54L172.51 176.5L173.47 177.35L174.53 178.07L175.69 178.65L176.92 179.07L178.22 179.34L179.58 179.43L180.93 179.34L182.23 179.07L183.47 178.65L184.62 178.07L185.69 177.35L186.65 176.5L187.49 175.54L188.21 174.47L188.79 173.32L189.22 172.09L189.49 170.79L189.58 169.43L189.49 168.07L189.22 166.77L188.79 165.54L188.21 164.38L187.49 163.32L186.65 162.36L185.69 161.51L184.62 160.79L183.47 160.21L182.23 159.78L180.93 159.52L179.58 159.43L178.22 159.52L176.92 159.78ZM435.34 118.36L434.11 118.79L432.95 119.37L431.89 120.09L430.93 120.94L430.08 121.9L429.36 122.96L428.78 124.12L428.35 125.35L428.09 126.65L428 128.01L428.09 129.36L428.35 130.66L428.78 131.89L429.36 133.05L430.08 134.11L430.93 135.07L431.89 135.92L432.95 136.64L434.11 137.22L435.34 137.65L436.64 137.91L438 138.01L439.35 137.91L440.65 137.65L441.88 137.22L443.04 136.64L444.1 135.92L445.06 135.07L445.91 134.11L446.63 133.05L447.21 131.89L447.64 130.66L447.9 129.36L447.99 128L447.98 127.44L447.93 126.88L447.85 126.33L447.75 125.79L447.61 125.26L447.44 124.75L447.25 124.24L447.04 123.75L446.79 123.28L446.53 122.81L446.24 122.37L445.93 121.94L445.84 121.87L445.75 121.8L445.67 121.74L445.58 121.67L445.5 121.6L445.41 121.53L445.33 121.45L445.25 121.38L445.17 121.31L445.09 121.23L445.01 121.15L444.93 121.07L444.85 121L444.77 120.91L444.69 120.83L444.62 120.75L444.55 120.67L444.48 120.59L444.4 120.5L444.33 120.42L444.26 120.33L444.2 120.25L444.13 120.16L444.06 120.07L443.63 119.76L443.19 119.47L442.72 119.21L442.25 118.96L441.76 118.75L441.25 118.56L440.74 118.39L440.21 118.25L439.67 118.15L439.12 118.07L438.56 118.02L438 118.01L436.64 118.1L435.34 118.36Z" id="c6Oxd3Ok4P"></path><path d="M339.67 292.9C341.93 290.64 360.03 272.54 362.29 270.27C366.2 266.37 366.2 260.04 362.29 256.13C358.39 252.23 352.06 252.23 348.15 256.13C347.11 257.17 341.93 262.35 332.6 271.69C302.9 241.99 286.4 225.49 283.1 222.19C279.19 218.29 272.86 218.29 268.96 222.19C265.05 226.1 265.05 232.43 268.96 236.34C274.61 241.99 319.87 287.25 325.52 292.9C327.4 294.78 329.94 295.83 332.6 295.83C335.25 295.83 337.79 294.78 339.67 292.9Z" id="bBlIEUZCt"></path><path d="M396.23 208.05C395.38 208.9 391.14 213.14 383.51 220.78L369.36 206.64C377 199 381.24 194.76 382.09 193.91C386 190 386 183.67 382.09 179.77C378.19 175.86 371.85 175.86 367.95 179.77C367.1 180.62 362.86 184.86 355.22 192.49L341.08 178.35C348.72 170.72 352.96 166.47 353.81 165.63C357.71 161.72 357.71 155.39 353.81 151.48C349.9 147.58 343.57 147.58 339.67 151.48C337.69 153.46 321.85 169.3 319.87 171.28C317.99 173.16 316.94 175.7 316.94 178.35C316.94 181 317.99 183.55 319.87 185.42C325.52 191.08 370.78 236.33 376.43 241.99C378.39 243.94 380.95 244.92 383.51 244.92C386.06 244.92 388.62 243.94 390.58 241.99C392.56 240.01 408.4 224.17 410.38 222.19C414.28 218.29 414.28 211.96 410.38 208.05C406.47 204.15 400.14 204.15 396.23 208.05Z" id="bnwNMQp4g"></path><path d="M229.96 265.95L230.27 265.97L230.58 266.01L230.89 266.05L231.2 266.1L231.5 266.16L231.81 266.24L232.11 266.32L232.42 266.41L232.72 266.51L233.02 266.62L233.31 266.75L233.61 266.88L233.9 267.02L308.85 305.21L309.21 305.4L309.57 305.61L309.91 305.83L310.24 306.06L310.55 306.3L310.86 306.56L311.15 306.82L311.44 307.09L311.71 307.38L311.96 307.67L312.21 307.97L312.44 308.29L312.66 308.6L312.86 308.93L313.06 309.26L313.24 309.61L313.4 309.95L313.56 310.3L313.7 310.66L313.82 311.02L313.93 311.39L314.03 311.76L314.11 312.14L314.18 312.52L314.24 312.9L314.28 313.28L314.3 313.67L314.31 314.05L314.31 314.44L314.29 314.83L314.25 315.22L314.2 315.61L314.14 315.99L314.05 316.38L313.96 316.77L313.84 317.15L313.71 317.53L313.57 317.91L313.4 318.28L313.22 318.65L313.03 319.02L312.82 319.37L312.6 319.71L312.37 320.04L312.13 320.36L311.87 320.66L311.61 320.96L311.33 321.24L311.05 321.51L310.75 321.77L310.45 322.01L310.14 322.24L309.82 322.46L309.5 322.67L309.16 322.86L308.82 323.04L308.47 323.21L308.12 323.36L307.76 323.5L307.4 323.63L307.03 323.74L306.66 323.83L306.29 323.92L305.91 323.99L305.53 324.04L305.15 324.08L304.76 324.11L304.37 324.12L303.99 324.11L303.6 324.09L303.21 324.06L302.82 324.01L302.43 323.94L302.04 323.86L301.66 323.76L301.28 323.65L300.9 323.51L300.52 323.37L300.14 323.2L299.77 323.03L293.75 319.96L273.39 340.33L276.45 346.34L276.63 346.72L276.8 347.09L276.94 347.47L277.07 347.85L277.19 348.23L277.29 348.62L277.37 349L277.43 349.39L277.48 349.78L277.52 350.17L277.54 350.56L277.54 350.95L277.53 351.33L277.51 351.72L277.47 352.1L277.41 352.48L277.35 352.86L277.26 353.24L277.16 353.61L277.05 353.97L276.93 354.34L276.79 354.7L276.63 355.05L276.47 355.39L276.29 355.73L276.1 356.07L275.89 356.39L275.67 356.71L275.44 357.02L275.19 357.33L274.94 357.62L274.67 357.9L274.38 358.18L274.09 358.44L273.79 358.7L273.47 358.94L273.14 359.17L272.8 359.39L272.45 359.6L272.08 359.79L271.97 359.85L271.86 359.9L271.75 359.95L271.64 360L271.53 360.05L271.42 360.1L271.31 360.15L271.2 360.19L271.09 360.24L270.98 360.28L270.86 360.32L270.75 360.36L270.64 360.39L270.53 360.43L270.41 360.46L270.3 360.5L270.19 360.53L270.07 360.56L269.96 360.59L269.84 360.62L269.73 360.64L269.62 360.67L269.5 360.69L269.39 360.71L269.27 360.74L269.16 360.76L269.04 360.77L268.93 360.79L268.81 360.81L268.7 360.82L268.58 360.83L268.47 360.84L268.35 360.85L268.24 360.86L268.12 360.87L268.01 360.88L267.89 360.88L267.78 360.88L267.67 360.89L267.55 360.89L267.28 360.88L267.01 360.87L266.73 360.85L266.46 360.83L266.19 360.79L265.93 360.75L265.66 360.71L265.39 360.65L265.13 360.59L264.87 360.52L264.61 360.44L264.35 360.36L264.1 360.27L263.84 360.18L263.59 360.07L263.35 359.96L263.1 359.85L262.86 359.72L262.62 359.59L262.39 359.46L262.16 359.31L261.93 359.16L261.71 359.01L261.49 358.84L261.27 358.68L261.06 358.5L260.85 358.32L260.65 358.13L260.45 357.94L260.26 357.74L260.07 357.53L259.89 357.32L259.71 357.11L259.54 356.88L259.37 356.65L259.21 356.42L259.06 356.18L258.91 355.93L258.77 355.68L258.63 355.42L220.45 280.47L220.31 280.18L220.17 279.89L220.05 279.59L219.94 279.29L219.84 278.99L219.75 278.69L219.66 278.38L219.59 278.08L219.53 277.77L219.48 277.46L219.43 277.15L219.4 276.84L219.38 276.53L219.36 276.22L219.36 275.91L219.36 275.6L219.38 275.29L219.4 274.98L219.44 274.67L219.48 274.37L219.54 274.06L219.6 273.76L219.67 273.46L219.75 273.16L219.84 272.86L219.94 272.57L220.05 272.28L220.17 271.99L220.3 271.71L220.43 271.42L220.58 271.15L220.73 270.87L220.9 270.61L221.07 270.34L221.25 270.08L221.44 269.83L221.64 269.58L221.85 269.33L222.06 269.09L222.29 268.86L222.52 268.64L222.76 268.42L223 268.21L223.25 268.01L223.51 267.82L223.77 267.64L224.03 267.47L224.3 267.3L224.57 267.15L224.85 267L225.13 266.87L225.42 266.74L225.71 266.62L226 266.51L226.29 266.41L226.59 266.32L226.89 266.24L227.19 266.17L227.49 266.11L227.79 266.06L228.1 266.01L228.41 265.98L228.72 265.95L229.03 265.94L229.34 265.93L229.65 265.94L229.96 265.95ZM275.02 310.41L252.24 298.81L263.84 321.59L275.02 310.41Z" id="ahkZNBPMc"></path><path d="M203.9 400.38C200 404.29 200 410.62 203.9 414.52C205.86 416.48 208.42 417.45 210.97 417.45C213.53 417.45 216.09 416.48 218.05 414.52C219.46 413.11 230.77 401.8 232.19 400.38C243.89 388.69 243.89 369.65 232.19 357.96C221.07 346.84 203.33 346.3 191.56 356.31C191.19 356.59 190.83 356.88 190.5 357.22C190.43 357.29 189.84 357.88 189.76 357.96C187.87 359.84 185.36 360.88 182.69 360.88C180.02 360.88 177.51 359.84 175.62 357.96C171.72 354.06 171.72 347.71 175.62 343.81C177.03 342.4 188.35 331.09 189.76 329.67C193.67 325.77 193.67 319.43 189.76 315.53C185.86 311.63 179.52 311.62 175.62 315.53C174.21 316.94 162.89 328.26 161.48 329.67C149.78 341.37 149.78 360.4 161.48 372.1C167.14 377.76 174.68 380.88 182.69 380.88C190.69 380.88 198.22 377.77 203.88 372.12C203.89 372.11 203.9 372.1 203.9 372.1C207.8 368.2 214.15 368.2 218.05 372.1C219.93 373.99 220.97 376.5 220.97 379.17C220.97 381.84 219.93 384.35 218.05 386.24C215.22 389.07 206.73 397.55 203.9 400.38Z" id="f5bEHBcapF"></path><path d="M157.71 68.35C151.26 79.77 99.66 171.18 93.21 182.6C90.5 187.41 92.2 193.51 97.01 196.22C98.56 197.1 100.25 197.52 101.91 197.52C105.4 197.52 108.79 195.69 110.63 192.43C117.08 181.01 168.68 89.61 175.13 78.18C177.84 73.37 176.15 67.27 171.34 64.56C166.53 61.84 160.43 63.54 157.71 68.35Z" id="b9hMFG7rQ"></path><path d="M97.83 60.11L99.13 60.25L100.42 60.45L101.68 60.71L102.93 61.01L104.16 61.37L105.37 61.78L106.55 62.23L107.7 62.74L108.84 63.29L109.94 63.89L111.02 64.53L112.06 65.21L113.08 65.94L114.06 66.7L115.02 67.51L115.93 68.35L116.81 69.24L117.66 70.15L118.46 71.1L119.23 72.09L119.96 73.1L120.64 74.15L121.28 75.23L121.88 76.33L122.43 77.46L122.93 78.62L123.39 79.8L123.8 81.01L124.16 82.24L124.46 83.48L124.72 84.75L124.91 86.04L125.06 87.34L125.15 88.66L125.17 90L125.15 91.33L125.06 92.65L124.91 93.95L124.72 95.24L124.46 96.51L124.16 97.76L123.8 98.98L123.39 100.19L122.93 101.37L122.43 102.53L121.88 103.66L121.28 104.77L120.64 105.84L119.96 106.89L119.23 107.9L118.46 108.89L117.66 109.84L116.81 110.76L115.93 111.64L115.02 112.48L114.06 113.29L113.08 114.05L112.06 114.78L111.02 115.46L109.94 116.11L108.84 116.7L107.7 117.25L106.55 117.76L105.36 118.22L104.16 118.62L102.93 118.98L101.68 119.29L100.42 119.54L99.13 119.74L97.82 119.88L96.51 119.97L95.17 120L93.84 119.97L92.52 119.88L91.21 119.74L89.93 119.54L88.66 119.29L87.41 118.98L86.18 118.62L84.98 118.22L83.8 117.76L82.64 117.25L81.51 116.7L80.4 116.11L79.33 115.46L78.28 114.78L77.26 114.05L76.28 113.29L75.33 112.48L74.41 111.64L73.53 110.76L72.69 109.84L71.88 108.89L71.11 107.9L70.39 106.89L69.7 105.84L69.06 104.77L68.46 103.66L67.91 102.53L67.41 101.37L66.95 100.19L66.54 98.98L66.19 97.76L65.88 96.51L65.63 95.24L65.43 93.95L65.28 92.65L65.2 91.33L65.17 90L65.2 88.66L65.28 87.34L65.43 86.04L65.63 84.75L65.88 83.48L66.19 82.24L66.54 81.01L66.95 79.8L67.41 78.62L67.91 77.46L68.46 76.33L69.06 75.23L69.7 74.15L70.39 73.1L71.11 72.09L71.88 71.1L72.69 70.15L73.53 69.24L74.41 68.35L75.33 67.51L76.28 66.7L77.26 65.94L78.28 65.21L79.33 64.53L80.4 63.89L81.51 63.29L82.64 62.74L83.8 62.23L84.98 61.78L86.18 61.37L87.41 61.01L88.66 60.71L89.93 60.45L91.21 60.25L92.52 60.11L93.84 60.02L95.17 59.99L96.51 60.02L97.83 60.11ZM92.51 80.35L91.28 80.78L90.13 81.36L89.06 82.08L88.1 82.93L87.25 83.89L86.54 84.95L85.96 86.11L85.53 87.34L85.26 88.64L85.17 90L85.26 91.35L85.53 92.65L85.96 93.89L86.54 95.04L87.25 96.11L88.1 97.07L89.06 97.91L90.13 98.63L91.28 99.21L92.51 99.64L93.82 99.91L95.17 100L96.53 99.91L97.83 99.64L99.06 99.21L100.22 98.63L101.28 97.91L102.24 97.07L103.09 96.11L103.81 95.04L104.39 93.89L104.82 92.65L105.08 91.35L105.17 90L105.08 88.64L104.82 87.34L104.39 86.11L103.81 84.95L103.09 83.89L102.24 82.93L101.28 82.08L100.22 81.36L99.06 80.78L97.83 80.35L96.53 80.08L95.17 79.99L93.82 80.08L92.51 80.35Z" id="a179zx0e3a"></path><path d="M364.92 356.25C363.06 358.1 361.99 360.68 361.99 363.31C361.99 365.95 363.06 368.53 364.92 370.38C366.78 372.24 369.35 373.31 371.99 373.31C374.62 373.31 377.2 372.25 379.06 370.38C380.92 368.53 381.99 365.95 381.99 363.31C381.99 360.68 380.92 358.1 379.06 356.25C377.2 354.39 374.62 353.31 371.99 353.31C369.35 353.31 366.78 354.38 364.92 356.25Z" id="c7LyH8aY0"></path></defs><g><g><g><use xlink:href="#c6Oxd3Ok4P" opacity="1" fill="#ffffff" fill-opacity="1"></use><g><use xlink:href="#c6Oxd3Ok4P" opacity="1" fill-opacity="0" stroke="#000000" stroke-width="1" stroke-opacity="0"></use></g></g><g><use xlink:href="#bBlIEUZCt" opacity="1" fill="#ffffff" fill-opacity="1"></use><g><use xlink:href="#bBlIEUZCt" opacity="1" fill-opacity="0" stroke="#000000" stroke-width="1" stroke-opacity="0"></use></g></g><g><use xlink:href="#bnwNMQp4g" opacity="1" fill="#ffffff" fill-opacity="1"></use><g><use xlink:href="#bnwNMQp4g" opacity="1" fill-opacity="0" stroke="#000000" stroke-width="1" stroke-opacity="0"></use></g></g><g><use xlink:href="#ahkZNBPMc" opacity="1" fill="#ffffff" fill-opacity="1"></use><g><use xlink:href="#ahkZNBPMc" opacity="1" fill-opacity="0" stroke="#000000" stroke-width="1" stroke-opacity="0"></use></g></g><g><use xlink:href="#f5bEHBcapF" opacity="1" fill="#ffffff" fill-opacity="1"></use><g><use xlink:href="#f5bEHBcapF" opacity="1" fill-opacity="0" stroke="#000000" stroke-width="1" stroke-opacity="0"></use></g></g><g><use xlink:href="#b9hMFG7rQ" opacity="1" fill="#ffffff" fill-opacity="1"></use><g><use xlink:href="#b9hMFG7rQ" opacity="1" fill-opacity="0" stroke="#000000" stroke-width="1" stroke-opacity="0"></use></g></g><g><use xlink:href="#a179zx0e3a" opacity="1" fill="#ffffff" fill-opacity="1"></use><g><use xlink:href="#a179zx0e3a" opacity="1" fill-opacity="0" stroke="#000000" stroke-width="1" stroke-opacity="0"></use></g></g><g><use xlink:href="#c7LyH8aY0" opacity="1" fill="#ffffff" fill-opacity="1"></use><g><use xlink:href="#c7LyH8aY0" opacity="1" fill-opacity="0" stroke="#000000" stroke-width="1" stroke-opacity="0"></use></g></g></g></g></svg>